{
    "accessors" : [
        {
            "bufferView" : 0,
            "componentType" : 5123,
            "count" : 24,
            "max" : [
                15
            ],
            "min" : [
                0
            ],
            "type" : "SCALAR"
        },
        {
            "bufferView" : 1,
            "componentType" : 5126,
            "count" : 16,
            "max" : [
                0.6401947736740112,
                2.786862850189209,
                0.9354864358901978
            ],
            "min" : [
                -0.6442903280258179,
                0.7868630290031433,
                -1.7332656383514404
            ],
            "type" : "VEC3"
        },
        {
            "bufferView" : 2,
            "componentType" : 5126,
            "count" : 16,
            "max" : [
                0.9924091100692749,
                0.4672817289829254,
                0.8841083645820618
            ],
            "min" : [
                -0.9924089908599854,
                0.12156865745782852,
                -0.9146329164505005
            ],
            "type" : "VEC3"
        },
        {
            "bufferView" : 3,
            "componentType" : 5123,
            "count" : 84,
            "max" : [
                55
            ],
            "min" : [
                0
            ],
            "type" : "SCALAR"
        },
        {
            "bufferView" : 4,
            "componentType" : 5126,
            "count" : 56,
            "max" : [
                0.9979530572891235,
                2.786862850189209,
                2.8675358295440674
            ],
            "min" : [
                -1.0020477771759033,
                -1.2131376266479492,
                -2.6618757247924805
            ],
            "type" : "VEC3"
        },
        {
            "bufferView" : 5,
            "componentType" : 5126,
            "count" : 56,
            "max" : [
                0.9843751192092896,
                1.0,
                0.9785657525062561
            ],
            "min" : [
                -0.9843752384185791,
                -1.0,
                -0.9924079775810242
            ],
            "type" : "VEC3"
        }
    ],
    "asset" : {
        "generator" : "Khronos Blender glTF 2.0 exporter",
        "version" : "2.0"
    },
    "bufferViews" : [
        {
            "buffer" : 0,
            "byteLength" : 48,
            "byteOffset" : 0,
            "target" : 34963
        },
        {
            "buffer" : 0,
            "byteLength" : 192,
            "byteOffset" : 48,
            "target" : 34962
        },
        {
            "buffer" : 0,
            "byteLength" : 192,
            "byteOffset" : 240,
            "target" : 34962
        },
        {
            "buffer" : 0,
            "byteLength" : 168,
            "byteOffset" : 432,
            "target" : 34963
        },
        {
            "buffer" : 0,
            "byteLength" : 672,
            "byteOffset" : 600,
            "target" : 34962
        },
        {
            "buffer" : 0,
            "byteLength" : 672,
            "byteOffset" : 1272,
            "target" : 34962
        }
    ],
    "buffers" : [
        {
            "byteLength" : 1944,
            "uri" : "car.bin"
        }
    ],
    "materials" : [
        {
            "name" : "Material",
            "pbrMetallicRoughness" : {
                "baseColorFactor" : [
                    0.640000066757203,
                    0.039137930261163856,
                    0.035622093612284855,
                    1.0
                ],
                "metallicFactor" : 0.0
            }
        },
        {
            "name" : "Material.001",
            "pbrMetallicRoughness" : {
                "baseColorFactor" : [
                    0.09178137319954294,
                    0.09835994986236019,
                    0.640000066757203,
                    1.0
                ],
                "metallicFactor" : 0.0
            }
        }
    ],
    "meshes" : [
        {
            "name" : "Cube",
            "primitives" : [
                {
                    "attributes" : {
                        "NORMAL" : 2,
                        "POSITION" : 1
                    },
                    "indices" : 0,
                    "material" : 1
                },
                {
                    "attributes" : {
                        "NORMAL" : 5,
                        "POSITION" : 4
                    },
                    "indices" : 3,
                    "material" : 0
                }
            ]
        }
    ],
    "nodes" : [
        {
            "mesh" : 0,
            "name" : "car_s1",
            "rotation" : [
                0.0,
                1.0,
                -0.0,
                -4.371138828673793e-08
            ],
            "scale" : [
                0.19999991357326508,
                0.10000000149011612,
                0.1808510720729828
            ],
            "translation" : [
                -0.00019519496709108353,
                0.12484679371118546,
                0.5214868187904358
            ]
        }
    ],
    "scene" : 0,
    "scenes" : [
        {
            "name" : "Scene",
            "nodes" : [
                0
            ]
        }
    ]
}
